<svg xmlns="http://www.w3.org/2000/svg" viewBox="0 0 1200 640" preserveAspectRatio="xMidYMid slice" aria-hidden="true" focusable="false">
  <defs>
    <linearGradient id="skyGrad" x1="0%" y1="0%" x2="0%" y2="100%">
      <stop offset="0%" stop-color="#eaf4f1"/>
      <stop offset="100%" stop-color="#dcedf1"/>
    </linearGradient>
    <linearGradient id="hillFar" x1="0%" y1="0%" x2="0%" y2="100%">
      <stop offset="0%" stop-color="#bcd9c9"/>
      <stop offset="100%" stop-color="#a7cdba"/>
    </linearGradient>
    <linearGradient id="hillMid" x1="0%" y1="0%" x2="0%" y2="100%">
      <stop offset="0%" stop-color="#7fb59a"/>
      <stop offset="100%" stop-color="#5f9f83"/>
    </linearGradient>
    <linearGradient id="hillNear" x1="0%" y1="0%" x2="0%" y2="100%">
      <stop offset="0%" stop-color="#3f7d64"/>
      <stop offset="100%" stop-color="#2f6a55"/>
    </linearGradient>
    <linearGradient id="waterGrad" x1="0%" y1="0%" x2="0%" y2="100%">
      <stop offset="0%" stop-color="#3a7ea3"/>
      <stop offset="100%" stop-color="#245a78"/>
    </linearGradient>
  </defs>

  <rect width="1200" height="640" fill="url(#skyGrad)"/>

  <path d="M0 260 C 180 210 340 300 520 250 C 700 200 860 280 1200 230 L1200 400 L0 400 Z" fill="url(#hillFar)" opacity="0.85"/>
  <path d="M0 330 C 200 280 380 360 600 320 C 820 280 980 350 1200 310 L1200 460 L0 460 Z" fill="url(#hillMid)" opacity="0.9"/>
  <path d="M0 400 C 220 360 420 430 640 390 C 860 350 1000 420 1200 390 L1200 520 L0 520 Z" fill="url(#hillNear)"/>

  <path d="M0 520 C 220 470 420 560 640 510 C 860 460 1000 540 1200 500 L1200 640 L0 640 Z" fill="url(#waterGrad)"/>
  <path d="M0 555 C 240 525 460 585 700 555 C 900 530 1040 575 1200 555 L1200 640 L0 640 Z" fill="#2a6a89" opacity="0.55"/>

  <!-- simple tree silhouettes -->
  <g fill="#254d3f" opacity="0.9">
    <path d="M120 470 c-14 -4 -24 -16 -24 -30 0 -14 12 -25 24 -27 -8 -18 6 -36 26 -36 16 0 28 12 28 26 14 0 24 12 24 24 0 14 -12 26 -28 26 z"/>
    <rect x="140" y="470" width="8" height="24" />
    <path d="M980 480 c-12 -4 -20 -14 -20 -26 0 -13 10 -22 20 -24 -6 -16 6 -32 22 -32 14 0 24 10 24 22 12 0 20 10 20 20 0 12 -10 22 -24 22 z"/>
    <rect x="994" y="480" width="7" height="22" />
  </g>
</svg>
